<svg width="48" height="41" viewBox="0 0 48 41" fill="none" xmlns="http://www.w3.org/2000/svg">
<path d="M36.5 39C36.5 34.8579 30.9036 31.5 24 31.5C17.0964 31.5 11.5 34.8579 11.5 39M46.5 31.5009C46.5 28.4255 43.4148 25.7823 39 24.625M1.5 31.5009C1.5 28.4255 4.58524 25.7823 9 24.625M39 14.5903C40.5344 13.217 41.5 11.2213 41.5 9C41.5 4.85786 38.1421 1.5 34 1.5C32.0791 1.5 30.3269 2.22213 29 3.40973M9 14.5903C7.46563 13.217 6.5 11.2213 6.5 9C6.5 4.85786 9.85786 1.5 14 1.5C15.9209 1.5 17.6731 2.22213 19 3.40973M24 24C19.8579 24 16.5 20.6421 16.5 16.5C16.5 12.3579 19.8579 9 24 9C28.1421 9 31.5 12.3579 31.5 16.5C31.5 20.6421 28.1421 24 24 24Z" stroke="#585858" stroke-width="3" stroke-linecap="round" stroke-linejoin="round"/>
</svg>
