<svg width="20" height="21" viewBox="0 0 20 21" fill="none" xmlns="http://www.w3.org/2000/svg">
<path d="M10.834 17.1647C10.7549 17.1654 10.6662 17.1654 10.5648 17.1654H5.99808C5.06648 17.1654 4.59999 17.1654 4.24382 16.9839C3.93021 16.8241 3.67543 16.5689 3.51564 16.2553C3.33398 15.8987 3.33398 15.4323 3.33398 14.4989V6.49886C3.33398 5.56544 3.33398 5.09838 3.51564 4.74186C3.67543 4.42826 3.93021 4.17348 4.24382 4.01369C4.60033 3.83203 5.06739 3.83203 6.00081 3.83203H14.0008C14.9342 3.83203 15.4003 3.83203 15.7568 4.01369C16.0704 4.17348 16.3261 4.42826 16.4858 4.74186C16.6673 5.09803 16.6673 5.56453 16.6673 6.49612V11.061C16.6673 11.1631 16.6673 11.2525 16.6665 11.332M10.834 17.1647C11.072 17.1625 11.2226 17.1539 11.3664 17.1194C11.5364 17.0786 11.6989 17.0109 11.848 16.9196C12.0162 16.8165 12.1603 16.6728 12.4486 16.3845L15.8865 12.9466C16.1747 12.6584 16.318 12.5142 16.4211 12.346C16.5125 12.1969 16.5801 12.0341 16.6209 11.864C16.6554 11.7203 16.6643 11.5699 16.6665 11.332M10.834 17.1647V12.6654C10.834 12.1987 10.834 11.9652 10.9248 11.7869C11.0047 11.6301 11.1321 11.5028 11.2889 11.4229C11.4672 11.332 11.7003 11.332 12.167 11.332H16.6665" stroke="#383838" stroke-linecap="round" stroke-linejoin="round"/>
</svg>
