<svg width="20" height="20" viewBox="0 0 20 20" fill="none" xmlns="http://www.w3.org/2000/svg">
<path d="M12.5 15.8333C12.5 13.9924 10.2614 12.5 7.5 12.5C4.73858 12.5 2.5 13.9924 2.5 15.8333M14.0234 4.3099C14.333 4.61942 14.5785 4.98689 14.746 5.39131C14.9135 5.79573 14.9999 6.22944 14.9999 6.66718C14.9999 7.10492 14.9136 7.53748 14.7461 7.94189C14.5786 8.34631 14.333 8.71421 14.0234 9.02374M15.8333 2.5C16.3805 3.04717 16.8145 3.69676 17.1107 4.41168C17.4068 5.1266 17.5599 5.89272 17.5599 6.66654C17.5599 7.44036 17.4071 8.20679 17.111 8.92171C16.8149 9.63663 16.3805 10.2863 15.8333 10.8335M7.5 10C5.65905 10 4.16667 8.50762 4.16667 6.66667C4.16667 4.82572 5.65905 3.33333 7.5 3.33333C9.34095 3.33333 10.8333 4.82572 10.8333 6.66667C10.8333 8.50762 9.34095 10 7.5 10Z" stroke="#FF7E74" stroke-linecap="round" stroke-linejoin="round"/>
</svg>
